<?xml version="1.0" encoding="UTF-8"?>
<svg xmlns="http://www.w3.org/2000/svg" version="1.1" viewBox="0 0 800 500">
  <defs>
    <style>
      .cls-1, .cls-2, .cls-3, .cls-4, .cls-5 {
        font-size: 14px;
      }

      .cls-1, .cls-3 {
        isolation: isolate;
      }

      .cls-1, .cls-5, .cls-6 {
        font-family: Aileron-Regular, Aileron;
      }

      .cls-7 {
        stroke: #b0b0b0;
      }

      .cls-7, .cls-8, .cls-9, .cls-10, .cls-11 {
        fill: none;
      }

      .cls-7, .cls-10 {
        stroke-opacity: .9;
      }

      .cls-12 {
        fill: #006be4;
        fill-opacity: .8;
      }

      .cls-8 {
        stroke: #e0e0e0;
        stroke-dasharray: 3 3;
      }

      .cls-2, .cls-3, .cls-13 {
        font-weight: 700;
      }

      .cls-2, .cls-13 {
        font-family: Aileron-Bold, Aileron;
      }

      .cls-3 {
        font-family: Helvetica-Bold, Helvetica;
      }

      .cls-9 {
        stroke: #333;
      }

      .cls-10 {
        stroke: #ccc;
        stroke-dasharray: 2 3;
      }

      .cls-11 {
        stroke: #000;
        stroke-miterlimit: 10;
      }

      .cls-14 {
        fill: #f1c254;
        fill-opacity: .6;
      }
    </style>
  </defs>
  <!-- Generator: Adobe Illustrator 28.7.2, SVG Export Plug-In . SVG Version: 1.2.0 Build 154)  -->
  <g>
    <g id="Layer_1">
      <rect class="cls-14" x="46" y="177.7" width="740" height="15.4"/>
      <g>
        <line class="cls-7" x1="46" y1="454.6" x2="786" y2="454.6"/>
        <line class="cls-7" x1="46" y1="423.8" x2="786" y2="423.8"/>
        <line class="cls-7" x1="46" y1="393.1" x2="786" y2="393.1"/>
        <line class="cls-7" x1="46" y1="362.3" x2="786" y2="362.3"/>
        <line class="cls-7" x1="46" y1="331.5" x2="786" y2="331.5"/>
        <line class="cls-7" x1="46" y1="300.8" x2="786" y2="300.8"/>
        <line class="cls-7" x1="46" y1="270" x2="786" y2="270"/>
        <line class="cls-7" x1="46" y1="239.2" x2="786" y2="239.2"/>
        <line class="cls-7" x1="46" y1="208.5" x2="786" y2="208.5"/>
        <line class="cls-7" x1="46" y1="177.7" x2="786" y2="177.7"/>
        <line class="cls-7" x1="46" y1="146.9" x2="786" y2="146.9"/>
        <line class="cls-7" x1="46" y1="116.2" x2="786" y2="116.2"/>
        <line class="cls-7" x1="46" y1="85.4" x2="786" y2="85.4"/>
      </g>
      <g>
        <line class="cls-10" x1="1001.5" y1="399.2" x2="1741.5" y2="399.2"/>
        <line class="cls-10" x1="1001.5" y1="368.5" x2="1741.5" y2="368.5"/>
        <line class="cls-10" x1="1001.5" y1="337.7" x2="1741.5" y2="337.7"/>
        <line class="cls-10" x1="1001.5" y1="306.9" x2="1741.5" y2="306.9"/>
        <line class="cls-10" x1="1001.5" y1="276.2" x2="1741.5" y2="276.2"/>
        <line class="cls-10" x1="1001.5" y1="245.4" x2="1741.5" y2="245.4"/>
        <line class="cls-10" x1="1001.5" y1="214.6" x2="1741.5" y2="214.6"/>
        <line class="cls-10" x1="1001.5" y1="183.8" x2="1741.5" y2="183.8"/>
        <line class="cls-10" x1="1001.5" y1="153.1" x2="1741.5" y2="153.1"/>
        <line class="cls-10" x1="1001.5" y1="122.3" x2="1741.5" y2="122.3"/>
        <line class="cls-10" x1="1001.5" y1="91.5" x2="1741.5" y2="91.5"/>
        <line class="cls-10" x1="1001.5" y1="60.8" x2="1741.5" y2="60.8"/>
      </g>
      <g>
        <line class="cls-8" x1="118.7" y1="84.9" x2="118.7" y2="454.5"/>
        <line class="cls-8" x1="184.8" y1="84.9" x2="184.8" y2="454.5"/>
        <line class="cls-8" x1="250.8" y1="84.9" x2="250.8" y2="454.5"/>
        <line class="cls-8" x1="316.9" y1="84.9" x2="316.9" y2="454.5"/>
        <line class="cls-8" x1="383" y1="84.9" x2="383" y2="454.5"/>
        <line class="cls-8" x1="449" y1="84.9" x2="449" y2="454.5"/>
        <line class="cls-8" x1="515.1" y1="84.9" x2="515.1" y2="454.5"/>
        <line class="cls-8" x1="581.2" y1="84.9" x2="581.2" y2="454.5"/>
        <line class="cls-8" x1="647.2" y1="84.9" x2="647.2" y2="454.5"/>
        <line class="cls-8" x1="713.3" y1="84.9" x2="713.3" y2="454.5"/>
      </g>
      <g>
        <g>
          <line class="cls-9" x1="59.2" y1="470" x2="178.1" y2="470"/>
          <text class="cls-3" transform="translate(104.2 485)"><tspan x="0" y="0">2022</tspan></text>
        </g>
        <g>
          <line class="cls-9" x1="191.4" y1="470" x2="442.4" y2="470"/>
          <text class="cls-3" transform="translate(302.4 485)"><tspan x="0" y="0">2023</tspan></text>
        </g>
        <g>
          <line class="cls-9" x1="455.6" y1="470" x2="706.7" y2="470"/>
          <text class="cls-3" transform="translate(566.7 485)"><tspan x="0" y="0">2024</tspan></text>
        </g>
        <g>
          <line class="cls-9" x1="719.9" y1="470" x2="772.8" y2="470"/>
          <text class="cls-3" transform="translate(731.9 485)"><tspan x="0" y="0">2025</tspan></text>
        </g>
      </g>
      <line class="cls-9" x1="781" y1="454.6" x2="786" y2="454.6"/>
      <text class="cls-1" transform="translate(28.1 453.7)"><tspan x="0" y="0">0</tspan></text>
      <line class="cls-9" x1="781" y1="423.8" x2="786" y2="423.8"/>
      <text class="cls-1" transform="translate(18.5 422.9)"><tspan x="0" y="0">0.5</tspan></text>
      <line class="cls-9" x1="781" y1="393.1" x2="786" y2="393.1"/>
      <text class="cls-1" transform="translate(18.5 392.1)"><tspan x="0" y="0">1.0</tspan></text>
      <line class="cls-9" x1="781" y1="362.3" x2="786" y2="362.3"/>
      <text class="cls-1" transform="translate(18.5 361.4)"><tspan x="0" y="0">1.5</tspan></text>
      <line class="cls-9" x1="781" y1="331.5" x2="786" y2="331.5"/>
      <text class="cls-1" transform="translate(18.5 330.6)"><tspan x="0" y="0">2.0</tspan></text>
      <line class="cls-9" x1="781" y1="300.8" x2="786" y2="300.8"/>
      <text class="cls-1" transform="translate(18.5 299.8)"><tspan x="0" y="0">2.5</tspan></text>
      <line class="cls-9" x1="781" y1="270" x2="786" y2="270"/>
      <text class="cls-1" transform="translate(18.5 269.1)"><tspan x="0" y="0">3.0</tspan></text>
      <line class="cls-9" x1="781" y1="239.2" x2="786" y2="239.2"/>
      <text class="cls-1" transform="translate(18.5 238.3)"><tspan x="0" y="0">3.5</tspan></text>
      <line class="cls-9" x1="781" y1="208.5" x2="786" y2="208.5"/>
      <text class="cls-1" transform="translate(18.5 207.5)"><tspan x="0" y="0">4.0</tspan></text>
      <line class="cls-9" x1="781" y1="177.7" x2="786" y2="177.7"/>
      <text class="cls-1" transform="translate(18.5 176.8)"><tspan x="0" y="0">4.5</tspan></text>
      <line class="cls-9" x1="781" y1="146.9" x2="786" y2="146.9"/>
      <text class="cls-1" transform="translate(18.5 146)"><tspan x="0" y="0">5.0</tspan></text>
      <line class="cls-9" x1="781" y1="116.2" x2="786" y2="116.2"/>
      <text class="cls-1" transform="translate(18.5 115.2)"><tspan x="0" y="0">5.5</tspan></text>
      <line class="cls-9" x1="781" y1="85.4" x2="786" y2="85.4"/>
      <text class="cls-1" transform="translate(9.6 84.4)"><tspan x="0" y="0">6.0%</tspan></text>
      <g>
        <circle class="cls-12" cx="76.3" cy="308.5" r="2.5"/>
        <circle class="cls-12" cx="82.5" cy="308.5" r="2.5"/>
        <circle class="cls-12" cx="88.8" cy="308.5" r="2.5"/>
        <circle class="cls-12" cx="95" cy="308.5" r="2.5"/>
        <circle class="cls-12" cx="151.7" cy="308.5" r="2.5"/>
        <circle class="cls-12" cx="217.8" cy="308.5" r="2.5"/>
        <circle class="cls-12" cx="283.9" cy="308.5" r="2.5"/>
        <circle class="cls-12" cx="416" cy="308.5" r="2.5"/>
        <circle class="cls-12" cx="79.4" cy="293.1" r="2.5"/>
        <circle class="cls-12" cx="85.6" cy="293.1" r="2.5"/>
        <circle class="cls-12" cx="91.9" cy="293.1" r="2.5"/>
        <circle class="cls-12" cx="142.3" cy="293.1" r="2.5"/>
        <circle class="cls-12" cx="148.6" cy="293.1" r="2.5"/>
        <circle class="cls-12" cx="154.8" cy="293.1" r="2.5"/>
        <circle class="cls-12" cx="161.1" cy="293.1" r="2.5"/>
        <circle class="cls-12" cx="214.7" cy="293.1" r="2.5"/>
        <circle class="cls-12" cx="220.9" cy="293.1" r="2.5"/>
        <circle class="cls-12" cx="280.7" cy="293.1" r="2.5"/>
        <circle class="cls-12" cx="287" cy="293.1" r="2.5"/>
        <circle class="cls-12" cx="349.9" cy="293.1" r="2.5"/>
        <circle class="cls-12" cx="482.1" cy="293.1" r="2.5"/>
        <circle class="cls-12" cx="79.4" cy="277.7" r="2.5"/>
        <circle class="cls-12" cx="85.6" cy="277.7" r="2.5"/>
        <circle class="cls-12" cx="91.9" cy="277.7" r="2.5"/>
        <circle class="cls-12" cx="148.6" cy="277.7" r="2.5"/>
        <circle class="cls-12" cx="154.8" cy="277.7" r="2.5"/>
        <circle class="cls-12" cx="208.4" cy="277.7" r="2.5"/>
        <circle class="cls-12" cx="214.7" cy="277.7" r="2.5"/>
        <circle class="cls-12" cx="220.9" cy="277.7" r="2.5"/>
        <circle class="cls-12" cx="227.2" cy="277.7" r="2.5"/>
        <circle class="cls-12" cx="283.9" cy="277.7" r="2.5"/>
        <circle class="cls-12" cx="349.9" cy="277.7" r="2.5"/>
        <circle class="cls-12" cx="416" cy="277.7" r="2.5"/>
        <circle class="cls-12" cx="548.1" cy="277.7" r="2.5"/>
        <circle class="cls-12" cx="611.1" cy="277.7" r="2.5"/>
        <circle class="cls-12" cx="617.3" cy="277.7" r="2.5"/>
        <circle class="cls-12" cx="76.3" cy="262.3" r="2.5"/>
        <circle class="cls-12" cx="82.5" cy="262.3" r="2.5"/>
        <circle class="cls-12" cx="88.8" cy="262.3" r="2.5"/>
        <circle class="cls-12" cx="95" cy="262.3" r="2.5"/>
        <circle class="cls-12" cx="142.3" cy="262.3" r="2.5"/>
        <circle class="cls-12" cx="148.6" cy="262.3" r="2.5"/>
        <circle class="cls-12" cx="154.8" cy="262.3" r="2.5"/>
        <circle class="cls-12" cx="161.1" cy="262.3" r="2.5"/>
        <circle class="cls-12" cx="208.4" cy="262.3" r="2.5"/>
        <circle class="cls-12" cx="214.7" cy="262.3" r="2.5"/>
        <circle class="cls-12" cx="220.9" cy="262.3" r="2.5"/>
        <circle class="cls-12" cx="227.2" cy="262.3" r="2.5"/>
        <circle class="cls-12" cx="277.6" cy="262.3" r="2.5"/>
        <circle class="cls-12" cx="283.9" cy="262.3" r="2.5"/>
        <circle class="cls-12" cx="290.1" cy="262.3" r="2.5"/>
        <circle class="cls-12" cx="349.9" cy="262.3" r="2.5"/>
        <circle class="cls-12" cx="412.9" cy="262.3" r="2.5"/>
        <circle class="cls-12" cx="419.1" cy="262.3" r="2.5"/>
        <circle class="cls-12" cx="478.9" cy="262.3" r="2.5"/>
        <circle class="cls-12" cx="485.2" cy="262.3" r="2.5"/>
        <circle class="cls-12" cx="598.6" cy="262.3" r="2.5"/>
        <circle class="cls-12" cx="604.8" cy="262.3" r="2.5"/>
        <circle class="cls-12" cx="611.1" cy="262.3" r="2.5"/>
        <circle class="cls-12" cx="617.3" cy="262.3" r="2.5"/>
        <circle class="cls-12" cx="623.6" cy="262.3" r="2.5"/>
        <circle class="cls-12" cx="629.8" cy="262.3" r="2.5"/>
        <circle class="cls-12" cx="680.3" cy="262.3" r="2.5"/>
        <circle class="cls-12" cx="82.5" cy="246.9" r="2.5"/>
        <circle class="cls-12" cx="88.8" cy="246.9" r="2.5"/>
        <circle class="cls-12" cx="148.6" cy="246.9" r="2.5"/>
        <circle class="cls-12" cx="154.8" cy="246.9" r="2.5"/>
        <circle class="cls-12" cx="214.7" cy="246.9" r="2.5"/>
        <circle class="cls-12" cx="220.9" cy="246.9" r="2.5"/>
        <circle class="cls-12" cx="277.6" cy="246.9" r="2.5"/>
        <circle class="cls-12" cx="283.9" cy="246.9" r="2.5"/>
        <circle class="cls-12" cx="290.1" cy="246.9" r="2.5"/>
        <circle class="cls-12" cx="343.7" cy="246.9" r="2.5"/>
        <circle class="cls-12" cx="349.9" cy="246.9" r="2.5"/>
        <circle class="cls-12" cx="356.2" cy="246.9" r="2.5"/>
        <circle class="cls-12" cx="403.5" cy="246.9" r="2.5"/>
        <circle class="cls-12" cx="409.8" cy="246.9" r="2.5"/>
        <circle class="cls-12" cx="416" cy="246.9" r="2.5"/>
        <circle class="cls-12" cx="422.2" cy="246.9" r="2.5"/>
        <circle class="cls-12" cx="428.5" cy="246.9" r="2.5"/>
        <circle class="cls-12" cx="482.1" cy="246.9" r="2.5"/>
        <circle class="cls-12" cx="598.6" cy="246.9" r="2.5"/>
        <circle class="cls-12" cx="604.8" cy="246.9" r="2.5"/>
        <circle class="cls-12" cx="611.1" cy="246.9" r="2.5"/>
        <circle class="cls-12" cx="617.3" cy="246.9" r="2.5"/>
        <circle class="cls-12" cx="623.6" cy="246.9" r="2.5"/>
        <circle class="cls-12" cx="629.8" cy="246.9" r="2.5"/>
        <circle class="cls-12" cx="680.3" cy="246.9" r="2.5"/>
        <circle class="cls-12" cx="82.5" cy="231.5" r="2.5"/>
        <circle class="cls-12" cx="88.8" cy="231.5" r="2.5"/>
        <circle class="cls-12" cx="148.6" cy="231.5" r="2.5"/>
        <circle class="cls-12" cx="154.8" cy="231.5" r="2.5"/>
        <circle class="cls-12" cx="217.8" cy="231.5" r="2.5"/>
        <circle class="cls-12" cx="280.7" cy="231.5" r="2.5"/>
        <circle class="cls-12" cx="287" cy="231.5" r="2.5"/>
        <circle class="cls-12" cx="343.7" cy="231.5" r="2.5"/>
        <circle class="cls-12" cx="349.9" cy="231.5" r="2.5"/>
        <circle class="cls-12" cx="356.2" cy="231.5" r="2.5"/>
        <circle class="cls-12" cx="409.8" cy="231.5" r="2.5"/>
        <circle class="cls-12" cx="416" cy="231.5" r="2.5"/>
        <circle class="cls-12" cx="422.2" cy="231.5" r="2.5"/>
        <circle class="cls-12" cx="469.6" cy="231.5" r="2.5"/>
        <circle class="cls-12" cx="475.8" cy="231.5" r="2.5"/>
        <circle class="cls-12" cx="482.1" cy="231.5" r="2.5"/>
        <circle class="cls-12" cx="488.3" cy="231.5" r="2.5"/>
        <circle class="cls-12" cx="494.6" cy="231.5" r="2.5"/>
        <circle class="cls-12" cx="548.1" cy="231.5" r="2.5"/>
        <circle class="cls-12" cx="608" cy="231.5" r="2.5"/>
        <circle class="cls-12" cx="614.2" cy="231.5" r="2.5"/>
        <circle class="cls-12" cx="620.5" cy="231.5" r="2.5"/>
        <circle class="cls-12" cx="674" cy="231.5" r="2.5"/>
        <circle class="cls-12" cx="680.3" cy="231.5" r="2.5"/>
        <circle class="cls-12" cx="686.5" cy="231.5" r="2.5"/>
        <circle class="cls-12" cx="743.2" cy="231.5" r="2.5"/>
        <circle class="cls-12" cx="749.5" cy="231.5" r="2.5"/>
        <circle class="cls-12" cx="151.7" cy="216.2" r="2.5"/>
        <circle class="cls-12" cx="217.8" cy="216.2" r="2.5"/>
        <circle class="cls-12" cx="283.9" cy="216.2" r="2.5"/>
        <circle class="cls-12" cx="346.8" cy="216.2" r="2.5"/>
        <circle class="cls-12" cx="353.1" cy="216.2" r="2.5"/>
        <circle class="cls-12" cx="406.6" cy="216.2" r="2.5"/>
        <circle class="cls-12" cx="412.9" cy="216.2" r="2.5"/>
        <circle class="cls-12" cx="419.1" cy="216.2" r="2.5"/>
        <circle class="cls-12" cx="425.4" cy="216.2" r="2.5"/>
        <circle class="cls-12" cx="466.4" cy="216.2" r="2.5"/>
        <circle class="cls-12" cx="472.7" cy="216.2" r="2.5"/>
        <circle class="cls-12" cx="478.9" cy="216.2" r="2.5"/>
        <circle class="cls-12" cx="485.2" cy="216.2" r="2.5"/>
        <circle class="cls-12" cx="491.4" cy="216.2" r="2.5"/>
        <circle class="cls-12" cx="497.7" cy="216.2" r="2.5"/>
        <circle class="cls-12" cx="545" cy="216.2" r="2.5"/>
        <circle class="cls-12" cx="551.3" cy="216.2" r="2.5"/>
        <circle class="cls-12" cx="614.2" cy="216.2" r="2.5"/>
        <circle class="cls-12" cx="652.2" cy="216.2" r="2.5"/>
        <circle class="cls-12" cx="658.4" cy="216.2" r="2.5"/>
        <circle class="cls-12" cx="664.7" cy="216.2" r="2.5"/>
        <circle class="cls-12" cx="670.9" cy="216.2" r="2.5"/>
        <circle class="cls-12" cx="677.2" cy="216.2" r="2.5"/>
        <circle class="cls-12" cx="683.4" cy="216.2" r="2.5"/>
        <circle class="cls-12" cx="689.7" cy="216.2" r="2.5"/>
        <circle class="cls-12" cx="695.9" cy="216.2" r="2.5"/>
        <circle class="cls-12" cx="702.2" cy="216.2" r="2.5"/>
        <circle class="cls-12" cx="708.4" cy="216.2" r="2.5"/>
        <circle class="cls-12" cx="721.4" cy="216.2" r="2.5"/>
        <circle class="cls-12" cx="727.6" cy="216.2" r="2.5"/>
        <circle class="cls-12" cx="733.9" cy="216.2" r="2.5"/>
        <circle class="cls-12" cx="740.1" cy="216.2" r="2.5"/>
        <circle class="cls-12" cx="746.4" cy="216.2" r="2.5"/>
        <circle class="cls-12" cx="752.6" cy="216.2" r="2.5"/>
        <circle class="cls-12" cx="758.9" cy="216.2" r="2.5"/>
        <circle class="cls-12" cx="765.1" cy="216.2" r="2.5"/>
        <circle class="cls-12" cx="771.4" cy="216.2" r="2.5"/>
        <circle class="cls-12" cx="151.7" cy="200.8" r="2.5"/>
        <circle class="cls-12" cx="217.8" cy="200.8" r="2.5"/>
        <circle class="cls-12" cx="280.7" cy="200.8" r="2.5"/>
        <circle class="cls-12" cx="287" cy="200.8" r="2.5"/>
        <circle class="cls-12" cx="343.7" cy="200.8" r="2.5"/>
        <circle class="cls-12" cx="349.9" cy="200.8" r="2.5"/>
        <circle class="cls-12" cx="356.2" cy="200.8" r="2.5"/>
        <circle class="cls-12" cx="416" cy="200.8" r="2.5"/>
        <circle class="cls-12" cx="482.1" cy="200.8" r="2.5"/>
        <circle class="cls-12" cx="523.1" cy="200.8" r="2.5"/>
        <circle class="cls-12" cx="529.4" cy="200.8" r="2.5"/>
        <circle class="cls-12" cx="535.6" cy="200.8" r="2.5"/>
        <circle class="cls-12" cx="541.9" cy="200.8" r="2.5"/>
        <circle class="cls-12" cx="548.1" cy="200.8" r="2.5"/>
        <circle class="cls-12" cx="554.4" cy="200.8" r="2.5"/>
        <circle class="cls-12" cx="560.6" cy="200.8" r="2.5"/>
        <circle class="cls-12" cx="566.9" cy="200.8" r="2.5"/>
        <circle class="cls-12" cx="573.1" cy="200.8" r="2.5"/>
        <circle class="cls-12" cx="614.2" cy="200.8" r="2.5"/>
        <circle class="cls-12" cx="674" cy="200.8" r="2.5"/>
        <circle class="cls-12" cx="680.3" cy="200.8" r="2.5"/>
        <circle class="cls-12" cx="686.5" cy="200.8" r="2.5"/>
        <circle class="cls-12" cx="737" cy="200.8" r="2.5"/>
        <circle class="cls-12" cx="743.2" cy="200.8" r="2.5"/>
        <circle class="cls-12" cx="749.5" cy="200.8" r="2.5"/>
        <circle class="cls-12" cx="755.7" cy="200.8" r="2.5"/>
        <circle class="cls-12" cx="151.7" cy="185.4" r="2.5"/>
        <circle class="cls-12" cx="217.8" cy="185.4" r="2.5"/>
        <circle class="cls-12" cx="416" cy="185.4" r="2.5"/>
        <circle class="cls-12" cx="478.9" cy="185.4" r="2.5"/>
        <circle class="cls-12" cx="485.2" cy="185.4" r="2.5"/>
        <circle class="cls-12" cx="538.8" cy="185.4" r="2.5"/>
        <circle class="cls-12" cx="545" cy="185.4" r="2.5"/>
        <circle class="cls-12" cx="551.3" cy="185.4" r="2.5"/>
        <circle class="cls-12" cx="557.5" cy="185.4" r="2.5" transform="translate(285.2 706) rotate(-80.8)"/>
        <circle class="cls-12" cx="680.3" cy="185.4" r="2.5"/>
        <circle class="cls-12" cx="737" cy="185.4" r="2.5"/>
        <circle class="cls-12" cx="743.2" cy="185.4" r="2.5"/>
        <circle class="cls-12" cx="749.5" cy="185.4" r="2.5"/>
        <circle class="cls-12" cx="755.7" cy="185.4" r="2.5"/>
        <circle class="cls-12" cx="85.6" cy="170" r="2.5"/>
        <circle class="cls-12" cx="283.9" cy="170" r="2.5"/>
        <circle class="cls-12" cx="349.9" cy="170" r="2.5"/>
        <circle class="cls-12" cx="283.9" cy="154.6" r="2.5"/>
        <circle class="cls-12" cx="349.9" cy="154.6" r="2.5"/>
        <circle class="cls-12" cx="548.1" cy="154.6" r="2.5"/>
        <circle class="cls-12" cx="349.9" cy="139.2" r="2.5"/>
        <circle class="cls-12" cx="349.9" cy="123.8" r="2.5"/>
        <circle class="cls-12" cx="416" cy="123.8" r="2.5"/>
        <circle class="cls-12" cx="482.1" cy="123.8" r="2.5"/>
        <circle class="cls-12" cx="548.1" cy="123.8" r="2.5"/>
        <circle class="cls-12" cx="151.7" cy="108.5" r="2.5"/>
        <circle class="cls-12" cx="217.8" cy="108.5" r="2.5"/>
        <circle class="cls-12" cx="283.9" cy="108.5" r="2.5"/>
        <circle class="cls-12" cx="349.9" cy="108.5" r="2.5"/>
      </g>
      <g>
        <path class="cls-11" d="M695.8,132.9s23.5,0,23.1,42.6"/>
        <path d="M714,168.7c.2-.2.5,0,.7.1l4.2,6.4,4-6.5c.1-.2.5-.3.7-.2.2.1.3.5.2.7l-4.4,7.2c0,.1-.2.2-.4.2-.2,0-.3,0-.4-.2l-4.6-7c0,0,0-.2,0-.3,0-.2,0-.3.2-.4Z"/>
      </g>
      <text class="cls-5" transform="translate(614.4 128.6)"><tspan x="0" y="0">Current rate</tspan><tspan x="0" y="15">4.25 - 4.5%</tspan></text>
      <text class="cls-4" transform="translate(42.7 17.5)"><tspan class="cls-6"><tspan x="0" y="0">Rate outlook</tspan></tspan><tspan class="cls-13"><tspan x="4.2" y="15">42 months</tspan></tspan><tspan class="cls-6"><tspan x="7.5" y="30">before the</tspan></tspan><tspan class="cls-6"><tspan x="19.7" y="45">end of</tspan></tspan><tspan class="cls-6"><tspan x="11.9" y="60">this year.</tspan></tspan></text>
      <text class="cls-2" transform="translate(142.8 32.5)"><tspan x="0" y="0">36</tspan></text>
      <text class="cls-2" transform="translate(210 32.5)"><tspan x="0" y="0">33</tspan></text>
      <text class="cls-2" transform="translate(275.6 32.5)"><tspan x="0" y="0">30</tspan></text>
      <text class="cls-2" transform="translate(341.2 32.5)"><tspan x="0" y="0">27</tspan></text>
      <text class="cls-2" transform="translate(407.5 32.5)"><tspan x="0" y="0">24</tspan></text>
      <text class="cls-2" transform="translate(471.8 32.5)"><tspan x="0" y="0">21</tspan></text>
      <text class="cls-2" transform="translate(536.4 32.5)"><tspan x="0" y="0">18</tspan></text>
      <text class="cls-2" transform="translate(604.4 32.5)"><tspan x="0" y="0">15</tspan></text>
      <text class="cls-2" transform="translate(674.7 32.5)"><tspan x="0" y="0">12</tspan></text>
      <text class="cls-2" transform="translate(741.6 32.5)"><tspan x="0" y="0">9</tspan></text>
    </g>
  </g>
</svg>